<?xml version="1.0" encoding="UTF-8"?>
<!DOCTYPE svg PUBLIC "-//W3C//DTD SVG 1.1//EN" "http://www.w3.org/Graphics/SVG/1.1/DTD/svg11.dtd">
<!-- Creator: CorelDRAW X7 -->
<svg xmlns="http://www.w3.org/2000/svg" xml:space="preserve" width="104.193mm" height="174.317mm" version="1.1" style="shape-rendering:geometricPrecision; text-rendering:geometricPrecision; image-rendering:optimizeQuality; fill-rule:evenodd; clip-rule:evenodd"
viewBox="0 0 10419 17432"
 xmlns:xlink="http://www.w3.org/1999/xlink">
 <defs>
  <style type="text/css">
   <![CDATA[
    .fil0 {fill:black;fill-rule:nonzero}
   ]]>
  </style>
 </defs>
 <g id="Layer_x0020_1">
  <metadata id="CorelCorpID_0Corel-Layer"/>
  <path class="fil0" d="M5243 0c381,0 721,135 1020,410 127,135 213,235 253,311 47,87 173,362 386,813 908,1923 1375,2897 1390,2944l-5 0c-270,-147 -777,-223 -1527,-223l-1572 0c-415,0 -746,-37 -990,-107 -126,-40 -252,-96 -379,-161 -466,-282 -702,-658 -702,-1130 0,-187 37,-385 111,-593 55,-131 279,-619 676,-1467 42,-95 128,-218 265,-368 310,-284 654,-429 1039,-429l35 0zm-4166 6797c176,-374 397,-834 652,-1383 89,-194 141,-295 162,-300l81 114c31,51 118,146 265,281 254,216 534,368 846,461 294,102 700,153 1217,153l2572 0c554,0 1026,49 1413,149 324,83 592,227 820,415 663,548 1352,2022 1313,2889 -84,-209 -161,-399 -261,-598 -451,-898 -1265,-2000 -2124,-2200l1123 2542c173,18 322,54 444,107 140,49 278,134 408,250 275,281 410,650 410,1096l0 16 -5 0 -40 -106c-275,-552 -763,-827 -1460,-827l-7409 0c-45,0 -80,-10 -114,-26 -106,-55 -160,-135 -160,-238l0 -21c0,-14 0,-35 4,-54 9,-26 19,-51 32,-72 153,-356 750,-1782 1409,-3156 -30,-14 -45,-30 -51,-35 -60,-29 -162,-121 -301,-273l-147 -201c-396,839 -1586,2986 -1586,3796l0 10c0,120 25,239 71,362 187,384 493,572 908,572l7380 0c367,0 708,137 1019,414 299,308 450,659 450,1039l0 294c0,654 -125,1299 -381,1939 -448,1060 -1169,1890 -2169,2497 -828,487 -1701,729 -2613,729l-62 0c-594,0 -1187,-106 -1775,-324 -349,-135 -631,-271 -858,-415 -162,-86 -382,-245 -659,-465 -96,-76 -237,-206 -411,-386 -196,-205 -336,-380 -433,-508 -640,-874 -975,-1849 -1013,-2919 -2,-69 -2,-139 -4,-208l-40 -1929c-2,-135 9,-264 18,-387 91,-1252 510,-1925 1059,-3094zm-487 5460c0,751 182,1472 544,2162 126,235 290,484 499,754 80,109 206,242 376,408 169,163 332,298 491,412 832,593 1745,889 2724,889 887,0 1724,-246 2496,-741 134,-84 295,-204 491,-357 98,-77 232,-198 393,-369 195,-216 340,-396 433,-541 167,-241 300,-471 403,-699 284,-630 428,-1259 428,-1882l0 -315c0,-167 -51,-330 -154,-493 -125,-172 -294,-293 -510,-370l0 1081c0,882 -251,1675 -756,2379 -78,114 -216,268 -408,465 -186,185 -341,323 -466,411 -712,512 -1498,766 -2345,766 -792,0 -1522,-214 -2196,-651 -135,-84 -317,-232 -554,-450 -178,-178 -301,-313 -373,-408 -174,-218 -312,-426 -412,-619 -106,-192 -199,-442 -294,-746 -106,-341 -156,-745 -156,-1228l0 -1070c0,-6 -14,-6 -50,-11 -137,-35 -244,-69 -320,-116 -66,-24 -163,-84 -284,-176l0 1515zm1353 -2951l647 0 1233 -2649c-90,-5 -156,-16 -192,-21 -69,0 -223,-34 -458,-105l-1230 2775zm1260 0l4070 0c-232,-491 -815,-1721 -1243,-2633l-1603 0 -1224 2633zm4683 0l653 0 -1160 -2614c-168,-14 -360,-19 -572,-19l-163 0c5,17 587,1246 1242,2633zm-6092 2901c0,795 246,1511 730,2141 66,92 182,221 358,386 140,129 273,233 394,320 604,408 1242,613 1917,613l57 0c638,0 1247,-185 1824,-551 142,-92 284,-197 431,-322 185,-175 294,-296 339,-354 536,-656 810,-1391 810,-2204l0 -1166 -665 0 0 1045c0,370 -39,680 -121,929 -64,197 -129,365 -204,496 -50,107 -140,249 -270,427 -65,82 -178,192 -325,339 -546,468 -1160,697 -1845,697 -554,0 -1065,-155 -1536,-465 -97,-53 -244,-171 -432,-347 -142,-153 -248,-284 -319,-391 -316,-488 -479,-1000 -479,-1533l0 -1197 -664 0 0 1137zm1214 81c0,294 76,598 223,918 66,142 158,284 269,421 71,97 178,204 325,330 420,330 887,496 1394,496 543,0 1029,-181 1461,-546 507,-458 759,-1031 760,-1716l-1 -1121 -4431 0 0 1218zm4340 -8502c-699,-1486 -1055,-2241 -1069,-2267 -138,-300 -228,-493 -280,-569 -192,-269 -446,-400 -765,-400 -351,0 -619,152 -812,457 -25,45 -213,446 -563,1191 -126,249 -192,467 -192,645 0,248 111,447 334,604 87,-188 396,-858 939,-1999 56,-158 153,-239 289,-239l5 0c90,0 166,45 232,131l372 782 745 1583 132 0c273,0 481,26 628,81l5 0zm-2119 -1643l-711 1512c168,31 426,45 767,45l679 0 -730 -1557 -5 0zm-2767 1738c86,222 244,419 477,597 154,105 324,192 514,263 304,112 726,168 1259,168l2250 0c422,0 803,65 1142,200 411,175 690,420 826,744l0 3c-102,-50 -181,-91 -249,-117 -409,-189 -1013,-281 -1804,-281l-2293 0c-465,0 -846,-55 -1131,-169 -355,-145 -619,-375 -787,-685 -47,-97 -92,-207 -139,-344 -44,-202 -70,-329 -70,-379l5 0z"/>
 </g>
</svg>
