<svg xmlns="http://www.w3.org/2000/svg" xml:space="preserve" width="210mm" height="75mm" style="shape-rendering:geometricPrecision;text-rendering:geometricPrecision;image-rendering:optimizeQuality;fill-rule:evenodd;clip-rule:evenodd" viewBox="0 0 21000 7500">
  <path d="M7318 1988c-61 0-116 22-165 66-20 22-34 38-41 50-7 14-28 59-62 132-147 311-223 469-225 476h1c43-23 125-36 247-36h254c67 0 121-6 160-17 21-6 41-15 62-26 75-46 113-106 113-183 0-30-6-62-18-96-9-21-45-100-109-237-7-16-21-36-43-60-50-46-106-69-168-69h-6zm-340 612c113-240 170-362 173-367 22-48 37-79 45-92 31-43 72-64 124-64 56 0 100 24 131 74 4 7 35 72 91 192 21 41 31 76 31 105 0 40-18 72-54 98-14-31-64-139-152-324-9-25-24-39-46-39h-1c-15 0-27 8-38 22l-60 126-121 256h-21c-44 0-78 4-102 13zm343-265 115 244c-28 5-69 7-124 7h-110l118-251h1zm447 281c-14 36-39 68-77 96-25 17-52 31-83 43-49 18-118 27-204 27h-364c-68 0-130 11-185 33-66 28-111 68-133 120v1c16-9 29-15 40-20 66-30 164-45 292-45h371c75 0 137-9 183-27 57-24 100-61 127-111 8-16 15-34 23-56 7-33 11-53 11-61h-1zm80 218c-5 8-19 23-43 45-41 35-87 60-137 75-48 17-113 25-197 25h-416c-129 0-230 16-303 49-29 13-57 32-83 58-22 23-38 45-47 63-13 22-38 75-77 159-20 40-30 78-30 115v6c0 57 21 110 62 158 50 53 110 80 178 80 26 0 53-4 80-13 56-20 100-56 130-108 8-14 83-174 226-478h259l185 395c26 57 42 90 49 99 5 9 19 25 42 47 49 39 101 58 156 58h6c47 0 92-15 135-43 7-3 22-16 44-39 39-48 59-99 59-156v-6c0-17-3-35-7-54-6-24-18-53-35-85 0-1-65-141-197-420-14-32-23-48-26-49l-13 19zm-114 171c5-2 7-4 8-5 10-5 26-20 49-44l24-33 196 415c17 32 26 60 26 88 0 38-14 74-41 104-32 32-69 48-111 48-15 0-32-2-48-8-37-13-64-35-83-67l-206-438c15-1 25-2 31-3 11 0 36-6 74-17l190 399c10 17 23 26 38 26h7c4 0 8-1 14-3 19-9 28-23 28-41l-3-14c-1-4-65-140-193-407zm-761 66c27-3 58-3 92-3h27c-1 3-67 142-197 418-4 11-13 24-24 39-33 35-72 53-115 53-39 0-73-14-104-42-32-32-48-68-48-110 0-15 2-30 7-46 4-10 20-46 50-107 20-45 35-76 45-90 6-10 18-24 37-42 17-14 35-26 52-33 19-9 43-17 72-23l-139 294c-12 23-17 38-17 47 1 7 2 14 5 22 11 15 23 22 37 22h6c12 0 23-6 34-17l180-382zm1505-1085c-27 0-55 6-84 17-22 9-39 17-52 27 25-6 47-8 66-8h4c44 0 85 14 121 41 11 7 28 24 52 50l127 168 403 534c158 212 243 325 256 341 5 8 17 22 37 41 33 29 67 44 101 44 33 0 62-14 89-41 20-24 29-45 29-65v-912c0-61-23-117-70-167-50-46-108-70-169-70h-6c-34 0-66 8-100 23-56 27-97 69-120 127-12 25-18 61-18 106v463l-174-231-296-392c-8-14-23-28-43-44-46-35-95-52-146-52h-7zm755 243c0-41 13-76 40-105 33-33 70-49 112-49 40 0 76 15 108 44 16 17 26 33 33 48 8 16 12 42 12 75v870c-7 22-19 33-37 33-5 0-9-1-13-2-5 0-14-6-27-19-21-23-32-37-32-40v-862c0-6-1-12-3-18-10-16-24-25-41-25-7 0-14 1-21 4-6 4-10 7-12 10-8 7-12 19-12 39v734h-1c-10-16-46-63-106-141v-596zm-836-68c-49 0-90 17-123 50-20 23-30 41-30 52l1 1c29-20 61-31 97-31 52 0 99 22 138 67 15 19 75 99 180 239 176 232 265 351 269 357 11 15 117 155 315 419 38 49 65 84 82 105 39 47 87 71 145 71 49 0 91-18 125-54 18-21 27-37 27-48l-1-1c-29 20-61 31-96 31-52 0-100-22-141-67l-179-237-299-396c-14-20-128-171-340-454-12-16-27-35-48-55-33-33-73-49-122-49zm-38 252c-30 0-57 11-82 33-24 25-37 50-37 72v911c0 59 23 115 68 166 50 48 107 72 170 72h7c42 0 83-12 123-35 47-29 81-72 101-131 9-22 13-53 13-94v-458l124 164 304 400c29 40 49 67 62 83 50 48 108 71 173 71 51 0 98-14 140-43-26 5-49 7-69 7-67 0-124-29-173-89l-128-169c-11-16-112-150-303-401l-337-449c-51-73-102-110-156-110zm-30 128c8-22 19-33 37-33 6 0 11 1 17 3 3 0 8 3 15 11 16 15 29 31 39 45v858c0 7 1 13 4 20 10 16 23 24 37 24h5c5 0 9-1 15-2 19-10 28-23 28-40v-740l91 120c11 14 16 22 16 22v594c0 35-10 66-31 94-34 41-75 61-121 61-14 0-31-2-47-8-40-14-70-41-89-78-11-19-16-45-16-80v-871zm2308-552c-131 0-258 31-381 94-42 21-86 50-134 87-49 39-94 83-135 134-32 41-58 79-77 112-72 131-107 266-107 407v10c0 120 26 237 79 351 17 38 39 76 66 115 15 22 35 48 60 79 12 15 38 40 77 77 38 33 72 59 102 79 39 23 75 43 108 59 112 50 226 74 342 74h10c106 0 211-21 316-63 49-20 98-47 148-80 16-11 32-23 50-37 16-12 43-36 81-73 35-36 58-64 71-84 40-49 60-101 60-158v-5c0-70-28-130-82-179-50-38-103-58-160-58h-2c-75 0-138 31-187 92-9 14-22 31-41 52-23 22-41 38-55 47-64 43-130 64-200 64h-8c-49 0-98-11-148-33-28-13-58-33-88-60-25-24-41-43-49-55-45-64-68-132-68-203v-12c0-52 12-103 36-154 10-17 23-38 41-63 6-9 22-25 47-49 71-57 147-86 229-86h8c77 0 149 25 217 77 17 12 35 30 54 53 8 10 18 24 32 43 50 55 110 84 182 84 59 0 113-20 163-61 53-49 79-109 79-177v-7c0-50-17-98-51-145-19-27-45-57-76-91-25-25-46-44-61-58-43-34-82-63-118-83-135-77-275-116-420-116h-10zm-745 836c0-83 14-163 42-243 16-45 32-82 49-111 14-27 38-63 73-110 35-43 72-80 112-113 34-27 65-48 93-65 119-70 246-105 378-105h6c108 0 212 23 312 71 38 17 79 42 124 74 18 12 47 36 85 72 38 40 64 68 74 84 29 33 44 67 44 105v3c0 36-12 68-35 97-34 35-72 54-117 54-15 0-31-3-47-7-35-12-62-34-80-64-11-16-29-38-56-66-34-30-63-51-88-64-70-38-141-56-214-56h-10c-68 0-134 16-198 48-22 10-49 27-81 52-11 9-29 27-53 52-22 26-39 51-51 73-39 71-58 142-58 214v14c0 75 20 147 60 218 12 24 33 53 63 85 29 28 49 46 63 55 80 54 166 82 255 82h8c72 0 142-18 209-53 23-10 51-30 85-58 22-21 38-36 46-47 6-8 17-24 34-46 31-34 67-51 109-51h4c33 0 63 10 92 30 40 32 60 71 60 119v4c0 20-4 39-12 56-4 13-22 39-55 81-22 27-51 56-86 87-37 30-72 55-102 73-122 73-250 109-382 109h-8c-87 0-173-15-259-47-158-62-282-162-372-304-77-125-116-256-116-396v-6zm746-639c-103 0-203 25-300 75-36 20-68 42-96 64-30 22-63 55-98 97-25 30-45 58-61 86-56 102-84 206-84 314v12c0 75 14 149 43 225 55 139 146 246 271 322 104 59 212 90 323 90h11c89 0 178-20 266-60 32-15 64-32 93-52 22-15 51-39 86-72 34-36 57-62 69-80 11-12 17-24 17-35v-4c0-4-1-9-4-15-9-19-23-28-41-28-15 0-27 6-37 18-9 16-29 41-60 74-26 24-46 42-64 55-101 73-210 110-327 110h-8c-83 0-165-20-244-60-23-11-51-29-83-52-16-11-37-29-64-56-29-31-50-58-64-80-63-96-94-195-94-300v-12c0-80 19-159 57-239 14-27 29-51 44-73 12-18 32-43 61-73 21-20 39-37 56-49 102-75 214-113 333-113h6c26 0 52 1 79 6 81 12 157 42 226 88 18 11 42 30 74 58 30 30 51 53 64 72 12 21 27 31 45 31 8-1 12-1 17-3 18-9 28-23 28-42v-8c0-10-20-36-57-78-31-33-53-54-67-64-32-26-60-46-86-62-104-58-210-87-321-87h-9zm1149-197c-40 0-81 12-121 34-14 8-31 22-52 41-43 48-65 103-65 163v576h1c-1 9-1 17-1 23v2h1c6-22 18-45 36-69 47-55 113-83 200-83h93c267 0 542 0 819-1 15 0 34-3 60-9 31-9 63-26 93-52 52-50 78-109 78-178v-208c0-63-23-119-69-168-50-47-107-71-168-71h-6c-31 0-64 8-97 22-60 28-101 73-125 135-10 23-15 57-15 101v340h-420v-342c0-45-6-81-18-108-9-25-26-50-51-77-50-47-106-71-167-71h-6zm-149 245c0-37 11-70 32-97 34-39 74-59 120-59 31 0 59 9 86 28 43 32 64 74 64 124v357h-106v-358c0-10-1-18-5-24-10-16-22-23-37-23h-2c-10 0-19 3-27 10-12 8-18 22-18 41v358c-16 3-31 7-45 12-18 5-39 16-62 33v-402zm900-4c0-35 12-67 34-96 32-37 72-56 116-56 30 0 58 9 85 26 45 33 67 75 67 130v198c0 33-8 63-25 88-20 28-47 48-82 59v-346c0-10-1-18-3-22-9-19-22-29-41-29h-2c-3 0-8 1-12 2-20 9-31 23-31 44v359h-106v-357zm390 403c0 1-2 5-4 11-8 20-22 42-44 66-23 23-41 36-55 42-36 21-86 32-149 32h-887c-71 0-129 19-172 59-45 46-68 105-68 178v1h1c19-52 54-92 104-118 37-21 86-31 149-31h886c71 0 130-20 173-60 45-46 67-106 67-179v-1h-1zm0 196c-8 25-20 48-37 68-45 54-111 82-198 82h-913c-15 0-35 4-59 10-31 9-63 26-94 52-52 50-78 109-78 179v210c0 54 19 106 57 153 6 8 10 11 10 11 50 49 109 73 172 73h5c45 0 89-13 130-40 45-29 77-73 96-130 7-21 10-51 10-92v-337h420v341c0 35 3 62 9 81 6 21 13 37 20 51 6 13 19 32 40 56 50 46 106 70 168 70h5c62 0 119-23 169-69 46-50 69-107 69-168v-601h-1zm-195 234c17-2 32-6 46-11 17-5 38-16 61-33v403c0 37-10 70-31 98-34 39-74 58-120 58-31 0-60-9-87-28-43-32-64-74-64-124v-358h106v356c0 6 1 10 2 15 9 21 23 31 42 31 4 0 10 0 17-2 18-8 28-24 28-48v-357zm-793 5v358c0 35-10 68-33 96-33 37-72 56-116 56-30 0-59-9-86-26-45-32-67-75-67-130v-198c0-35 9-65 26-91 21-27 47-47 81-57v343c0 9 1 16 3 22 10 20 23 29 42 29 5 0 10 0 14-1 20-9 30-24 30-44v-357h106zm1403-1079c-35 0-73 9-110 28-18 9-38 25-61 46-22 24-38 49-48 74-5 13-9 27-12 42-5 11-6 38-6 82v566c6-18 18-41 36-66 46-56 113-85 201-85h911c35 0 67 13 97 39 34 33 51 70 51 110v7c0 28-9 56-28 84-33 43-73 64-122 64h-900c-57 0-110 17-155 50-61 52-91 116-91 194v199c0 72 26 134 80 185 48 40 101 59 159 59h907c48 0 92-14 134-42 10-4 24-17 45-38 40-49 60-101 60-158v-6c0-51-17-100-51-145-8-11-20-25-39-40-47-34-95-51-145-51h-668v-118h657c84 0 152-33 202-100 29-44 44-91 44-137v-7c0-45-14-90-42-135-51-69-119-103-204-103h-657v-117h668c39 0 77-11 117-32 15-9 31-21 49-39 46-49 69-104 69-166v-5c0-42-11-83-33-122-9-16-23-33-41-51-48-43-103-66-164-66h-910zm-148 249c0-27 4-50 11-66 6-15 16-31 31-47 30-31 70-47 118-47h887c52 0 93 18 123 52 25 31 37 63 37 97v6c0 25-6 49-20 73-32 50-78 75-136 75h-703c-13 0-23 5-31 14-9 7-13 20-13 39v153h-108v-312h860c4 0 8-1 13-3 20-9 31-23 31-42 0-6-2-11-5-17-8-18-22-27-39-27h-904c-7 0-13 2-19 4-17 9-26 22-26 39v362c-11 1-30 7-56 16-17 7-34 17-51 29v-398zm158 546c-79 0-141 20-183 61-43 46-64 106-64 178l3-5c7-18 16-34 27-49 48-65 119-96 208-96h907c7 0 13-1 17-3 20-9 31-22 31-41v-2c0-3-1-8-3-12-8-21-23-31-45-31h-898zm146 285v153c0 10 0 17 1 22 9 21 23 32 43 32h704c44 0 82 15 113 46 28 30 42 65 42 101v7c0 14-2 28-8 45-16 39-39 68-69 83-21 14-49 20-87 20h-579c-82 0-189 0-324-1l-19-2c-20-4-40-12-56-24-44-32-65-75-65-125v-205c0-32 9-61 27-88 21-28 48-46 80-56v350c0 5 1 8 3 13 9 21 22 31 42 31h906c6 0 13-2 19-4 17-9 25-23 25-39v-3c0-5-1-10-2-16-10-18-23-27-41-27h-863v-313h108zm1406-1080c-42 0-83 12-121 34-13 6-30 20-51 41-44 48-66 103-66 163v599c1-7 8-21 20-43 43-71 117-107 223-107h623c38 0 70-11 97-34 35-31 53-69 53-113 0-31-10-60-29-87-31-39-70-60-118-60h-433c-13 0-25 5-34 16-7 6-11 19-11 38v151h-105l-1-1v-311h588c46 0 88 13 129 39 12 5 31 21 55 46 45 50 66 106 66 169 0 70-26 130-79 183-52 47-108 70-172 70h-607c-36 0-61 2-75 4-38 5-74 19-106 42-57 45-84 110-84 194 0-1 1-3 3-8 42-95 124-143 244-143h606c126 0 226-48 298-146 41-61 61-125 61-191v-11c0-58-16-115-49-171-9-16-19-30-30-43-9-11-23-26-42-43-68-53-140-80-221-80h-630c-5 0-10 1-15 2-19 9-29 23-29 40v363c-22 4-43 9-62 18-14 6-29 15-45 27v-397c0-20 1-38 5-52 14-39 36-68 66-85 22-15 53-24 91-24h600c57 0 104 6 142 18 32 10 60 21 81 33 18 8 37 20 57 34 17 11 38 30 65 56 21 24 37 45 50 63 48 79 72 158 72 239v5l1 3c-1 1-1 2-1 3v6c0 62-15 123-45 188-9 19-21 39-36 61-10 16-29 38-58 66-20 19-38 34-53 44-82 54-169 82-263 82h-601c-44 0-77 4-98 13-52 19-93 48-122 90-12 18-23 39-30 60-7 28-12 50-12 68v220c0 42 11 82 33 121 6 10 19 27 41 50 48 44 104 66 164 66h5c41 0 82-11 121-33 15-9 32-22 50-41 44-48 66-104 66-165v-360h114c141 272 223 430 246 473 9 18 23 39 45 62 48 43 102 64 163 64h4c58 0 110-19 158-56 7-7 11-11 12-11 47-50 71-107 71-172 0-33-7-64-19-94-6-14-60-121-165-322 19-9 40-22 65-38 21-14 47-36 78-67 31-34 53-60 68-82 58-92 87-189 87-292v-9c0-93-25-183-74-271-14-24-32-48-53-73l-27-30c-31-31-56-51-74-63-97-65-198-98-305-98h-636zm633 482c10 0 19 3 28 9 19 12 28 28 28 49 0 7-2 15-5 23-12 24-29 35-53 35h-389v-116h391zm45 595c0-1 8-2 24-3 33-5 60-11 83-17h1c99 190 150 287 152 291 19 30 28 60 28 87v6c0 29-9 57-27 85-34 42-76 63-127 63-15 0-31-2-48-6-33-13-58-33-77-63-8-14-85-161-230-441h121c20 40 83 163 190 369 10 23 24 34 45 34 7-1 11-1 13-1 21-9 32-23 32-43v-2c0-4-1-8-3-12 1-2-59-117-177-347zm-525 2v362c0 34-12 66-37 96-32 35-71 52-114 52-33 0-65-10-93-33-19-15-29-26-30-31-19-24-28-57-28-97v-214c3-23 10-42 20-60 19-31 47-53 86-67h1v351c0 6 2 13 4 19 10 16 24 24 41 24 3 0 7 0 13-1 20-9 31-23 31-42v-359h106zm1309-1077c-50 0-98 16-141 47-7 5-21 16-38 35-39 46-58 99-58 155v6c0 50 15 96 46 140 11 13 66 80 169 201l288 342v509c0 67 25 125 72 174 49 45 104 67 165 67h5c55 0 106-19 154-56 56-50 85-112 85-185v-509c91-109 137-163 137-164l296-353c46-50 69-105 69-166v-6c0-48-15-94-45-138-10-14-25-29-43-46-46-35-96-53-150-53h-5c-59 0-113 21-162 64-11 13-33 37-63 74l-275 327-1-1-297-354c-12-16-26-32-44-49-48-40-101-61-158-61h-6zm-148 241c0-43 15-80 47-111 31-27 65-41 103-41 42 0 79 15 110 46l71 85c172 205 265 316 281 333 12 18 26 26 41 26 10 0 20-3 29-10 4-4 23-27 60-70 187-222 283-336 288-341 33-46 76-69 127-69 39 0 73 14 103 41 32 32 48 68 48 109 0 31-9 60-26 86l-87 104c-4 6-132 156-379 452-7 7-10 20-10 37v523c0 28-10 56-29 84-34 42-75 62-123 62-43 0-80-16-112-50-25-30-39-62-39-96v-523c0-14-1-23-5-29-2-4-24-30-65-80-5-7-135-161-391-464-28-31-42-66-42-104zm146-48c-4 0-8 1-14 4-19 9-28 23-28 40 0 9 2 17 7 25l124 148c6 5 131 153 374 445v576c0 8 1 13 3 19 9 20 23 30 40 30h4c5 0 9-1 13-3 19-8 29-23 29-44v-578l61-73c28-31 168-199 425-504 13-14 20-27 20-41 0-9-3-17-8-24-10-13-22-20-34-20h-5c-10 0-20 4-29 12l-157 187-317 376c-73-86-115-134-123-147l-338-401c-12-18-26-27-42-27h-5zM6756 3835c-54 0-105 18-152 52-59 51-89 115-89 189v1201c0 67 24 126 71 174 48 42 105 63 169 63v-1l-13-5c-15-5-30-14-47-25-61-45-91-114-91-206V4072c0-33 12-65 35-94 34-36 73-54 116-54h2c19 0 39 4 59 11 62 30 92 80 92 147v1195c0 59 22 114 67 164 50 49 107 73 168 73h48c106 0 210-20 314-61 171-73 306-190 404-351 79-134 118-276 118-423v-10c0-96-17-192-53-288-21-56-44-102-67-138-14-27-40-62-75-107-12-16-33-38-63-67-33-31-61-54-82-70-150-110-319-164-506-164h-379c-10 0-17 1-19 1-11 0-20-1-27-1zm433 89c122 0 238 29 350 88 38 20 78 47 122 81 18 12 39 33 66 60 27 28 48 54 67 80 96 134 144 282 144 441 0 143-40 279-120 404-14 21-33 47-58 79-12 16-32 38-60 64-35 31-64 55-87 70-39 27-76 48-113 65-102 46-204 69-305 69h-51c-27 0-53-8-80-25-28-20-47-47-60-82h175c143 0 271-41 385-123 19-12 44-35 76-66 30-30 52-55 66-75 83-115 124-242 124-380 0-128-35-246-105-355-14-22-38-51-73-90-29-28-51-48-66-60-35-28-69-50-100-67s-72-32-121-47c-55-17-121-25-199-25h-173c-1 0-1-3-2-9-5-22-11-39-18-51-4-11-14-27-29-46h245zm-434 103c-3 0-6 0-9 1-23 7-34 23-34 47v1188c0 49 6 89 19 119 8 22 22 45 41 66 45 44 105 66 177 66h3v-1l-17-6c-90-45-134-124-134-236V4072c0-8-2-13-4-19-9-17-22-26-39-26h-3zm426 92c129 0 245 39 347 118 14 10 35 29 62 58 21 22 38 44 52 63 66 98 99 201 99 311v9c0 103-30 202-89 295-15 23-32 46-52 70-28 30-48 47-58 55-106 86-225 131-356 131h-189v-108h169c60 0 110-6 151-19 31-11 59-21 80-33 17-9 40-23 69-44 13-11 31-29 55-53 75-88 113-188 113-298 0-90-25-173-76-249-8-16-27-39-56-70-24-23-46-40-63-51-79-52-162-78-248-78h-194v-107h184zm13 196c48 0 97 12 149 36 23 11 46 26 68 44 16 11 33 28 53 52 54 68 81 144 81 226 0 88-30 166-89 236-74 82-167 123-277 123h-182v-717h197zm1435-479c-35 0-73 9-110 28-18 9-39 25-61 46-22 24-38 49-48 74-5 13-10 27-13 42-4 11-6 38-6 82v566h1c5-18 17-41 36-66 46-56 113-85 201-85h910c36 0 68 13 98 39 34 33 51 70 51 110v7c0 28-9 56-28 84-34 43-74 64-122 64h-900c-57 0-110 17-155 50-61 52-92 116-92 194v199c0 72 27 134 81 185 48 40 101 59 159 59h907c48 0 92-14 134-42 10-4 24-17 45-38 40-49 60-101 60-158v-6c0-51-17-100-52-145-7-11-20-25-38-40-47-34-95-51-145-51h-668c-1 0-1-1-1-2v-116h657c85 0 152-33 203-100 29-44 44-91 44-137v-7c0-45-14-90-43-135-50-69-118-103-203-103h-658v-116l1-1h668c38 0 77-11 117-32 14-9 31-21 49-39 46-48 69-104 69-166v-5c0-42-11-83-34-122-9-16-22-33-40-51-49-43-103-66-164-66h-910zm-149 249c0-27 5-50 12-66 6-15 16-31 31-47 30-31 70-47 118-47h887c52 0 93 18 123 52 25 31 37 63 37 97v6c0 25-6 49-20 73-32 50-78 75-136 75h-703c-13 0-24 5-31 14-9 7-14 20-14 39v153h-107v-312h860c4 0 8-1 12-3 21-9 31-23 31-42 0-6-1-11-4-17-9-18-22-27-39-27h-905c-6 0-12 2-18 4-17 9-26 22-26 39v363c-11 0-30 6-57 15-16 7-33 17-51 29v-398zm159 546c-79 0-141 20-183 61-43 46-65 106-65 178h1l3-5c7-18 16-34 27-49 48-65 118-96 208-96h907c7 0 12-1 16-3 21-9 32-22 32-41v-2c0-3-1-8-3-12-8-21-23-31-45-31h-898zm145 285v153c0 10 1 17 2 22 9 21 23 32 43 32h704c44 0 82 15 112 46 29 30 43 65 43 101v7c0 14-2 28-8 45-16 39-39 68-69 83-21 14-49 20-87 20h-579c-82 0-190 0-325-1l-18-2c-20-4-40-13-57-24-43-32-65-75-65-125v-205c0-32 9-61 28-88 21-28 47-46 80-56v350c0 5 1 8 2 13 9 21 23 31 42 31h907c6 0 13-2 19-5 17-8 25-22 25-38v-3c0-5-1-10-3-16-9-18-22-27-40-27h-863v-313h107zm2006-1079c-93 0-160 3-198 9-35 4-66 11-93 22-32 12-59 24-80 37-31 17-56 34-77 51v1c39-19 200-28 479-28h368c36 0 70 13 100 40 33 31 48 66 48 105v7c0 38-15 73-45 105-32 28-66 42-102 42h-731c-32 0-52 0-61 1-39 0-74 7-106 22-23 10-45 27-67 47-46 50-70 107-70 171v1c0 24 4 48 11 73 14 39 29 73 45 102 12 22 31 48 55 78 11 14 30 33 57 59 26 22 49 40 71 53 90 54 184 81 279 81h212c9 0 17 2 24 4 25 12 37 30 37 54 0 13-3 23-10 33-12 17-28 25-45 25h-501c-54 0-100 13-140 39-11 7-25 19-44 37-43 49-65 104-65 164v5c0 36 9 72 27 108 10 19 25 40 48 64 48 43 103 65 163 65h515c58 0 117-10 179-31 40-14 76-32 109-53 18-11 33-23 44-34-43 19-201 29-472 29h-33c-125 0-242 0-349-1l-17-1c-25-4-50-17-75-39-32-32-48-68-48-105v-9c0-24 7-48 21-72 31-50 76-75 132-75h789c60 0 113-21 161-61 53-51 79-112 79-179v-2c0-30-6-63-20-97-42-104-108-189-200-254-27-17-52-32-76-43-72-34-151-51-239-51h-202c-9 0-18-3-28-8-18-14-27-29-27-48v-5c0-16 6-29 19-42 9-10 28-15 57-15h492c41 0 81-11 121-33 16-9 32-23 51-41 44-48 66-103 66-163v-6c0-46-14-91-43-132-17-25-35-45-56-59-40-31-92-46-151-46h-10c-219-1-344-1-378-1zm-380 196c-43 0-79 7-109 20-16 7-30 15-46 26-12 9-28 24-45 45-23 32-37 61-42 88v1c5-8 16-19 30-33 15-12 27-20 37-25 38-21 97-31 176-31h776c4 0 9-1 15-4 19-9 29-23 29-40v-5c0-1 0-4-1-8-8-23-24-34-48-34h-772zm15 346c0-9 1-19 2-30 2-21 5-31 6-31h112c-8 20-12 40-12 59 0 28 8 55 23 81 13 19 26 32 40 41 22 17 53 26 92 26h207c61 0 121 14 181 42 22 9 47 24 78 46 12 7 32 25 60 53 22 24 40 46 52 66 39 63 58 112 58 150 0 21-5 42-14 62-17 37-45 63-82 78 3-17 3-33 3-49 0-78-25-148-75-213-5-8-21-24-47-47-67-54-138-81-215-81h-207c-41 0-78-6-106-19-18-7-42-23-72-47-56-54-84-116-84-187zm-179 88c0-22 5-43 16-66 17-34 43-58 78-71-3 15-4 29-4 42v11c0 57 16 112 46 167 11 19 28 43 53 70 71 68 152 101 244 101h209c68 0 127 25 179 74 51 53 75 112 75 178 0 19-2 38-6 59h-112c8-20 11-37 11-53v-9c0-24-8-49-22-74-31-46-73-69-124-69h-206c-93 0-176-25-254-76-17-10-41-30-71-60-24-26-43-49-55-69-39-64-57-115-57-152v-3zm1155 672c-42 60-117 90-226 90h-789c-7 0-14 1-19 2-19 10-29 24-29 41v5c0 4 1 8 2 14 10 19 24 28 41 28h791c33 0 66-7 100-22 55-25 93-65 117-120 9-22 13-34 13-38h-1zm631-1304c-51 0-99 16-144 48-8 4-21 17-41 38-36 47-55 97-55 151v1205c0 60 22 115 66 164 51 49 110 73 174 73h4c51 0 99-15 142-47 7-5 21-18 41-38 36-47 55-98 55-152V4072c0-43-12-85-37-124-5-12-18-28-37-47-49-44-103-66-162-66h-6zm-151 242c0-44 16-80 48-112 31-28 67-41 105-41 32 0 62 10 89 29 42 32 62 74 62 124v1195c0 43-15 80-47 111-30 28-65 42-104 42-31 0-61-10-90-29-42-32-63-74-63-124V4077zm153-50c-5 0-10 1-16 3-20 9-29 24-29 46v1193c0 8 0 14 3 20 9 19 23 29 41 29h2c6 0 11-1 15-3 20-9 29-23 29-46V4076c0-7-1-14-3-20-9-19-23-29-42-29zm1440-192c-99 0-198 18-296 55-41 16-76 33-105 50-29 16-66 40-110 74-47 36-93 80-136 133-29 38-53 72-71 101-78 134-116 274-116 421v10c0 137 34 268 101 395 17 32 42 70 76 114 12 18 37 46 73 83 34 33 62 56 83 72 153 115 323 171 511 171h96c52 0 100-16 145-49 62-51 94-117 94-196v-250c0-37 12-70 37-100 33-34 72-51 115-51 41 0 77 15 109 46 28 29 41 67 41 113v231c0 47-4 83-12 109-7 24-15 43-24 56-3 10-16 25-35 46-26 21-52 37-78 44v1h1c67 0 125-24 174-71 42-47 63-104 63-167v-257c0-65-24-122-70-170-49-47-105-70-169-70-27 0-54 4-80 13-56 20-97 53-126 101v-2h-1c-20 26-43 49-68 69-67 48-137 72-211 72h-11c-71 0-139-23-204-68-13-9-32-25-55-49-62-71-93-151-93-241 0-63 16-123 48-180 11-20 28-42 50-66 21-20 36-34 49-43 65-46 133-68 205-68h11c55 0 110 13 163 42 22 11 48 29 77 55 25 24 40 42 47 54 4 9 16 24 38 44 48 40 102 60 160 60h2c64 0 122-25 171-73 45-48 67-103 67-164v-5c0-55-19-106-58-157-16-23-43-54-81-94-34-32-62-57-84-74-38-28-71-50-102-66-131-70-263-104-400-104h-11zm-745 839c0-122 29-238 87-347 21-41 50-84 85-127 7-11 29-36 68-74 39-35 75-62 105-81 126-81 261-121 406-121 130 0 252 33 369 99 27 16 53 32 76 48 22 15 51 40 88 76 35 38 60 68 75 90 22 30 33 62 33 95 0 38-13 73-39 103-32 32-69 48-111 48-41 0-78-15-110-47-6-6-16-20-32-40-11-14-26-30-46-49s-38-34-53-43c-78-51-161-76-250-76-104 0-197 33-282 99-19 15-41 37-65 66-66 84-100 176-100 280v3c0 108 37 205 110 293 29 30 47 48 56 53 84 66 178 99 279 99 91 0 174-25 251-76h1v122c-80 41-163 62-250 62h-2c-109 0-209-32-303-94-19-11-43-29-72-56-27-26-46-47-57-61-19-26-35-49-47-69-49-88-74-177-74-269v-12c0-76 18-152 53-227 14-29 30-56 46-80 16-22 37-48 64-76 25-25 45-42 58-52 101-76 212-113 332-113h3c113 0 219 34 315 101 22 16 46 35 74 60 25 26 44 49 58 68 11 19 25 28 43 28 7 0 13-1 18-4 17-9 26-22 26-39v-12c0-7-14-27-40-58-12-16-31-36-58-62-43-37-81-64-113-83-101-58-210-88-325-88s-224 30-328 90c-21 12-46 31-76 55-15 10-37 31-67 63-23 24-42 48-58 70-76 112-114 234-114 365 0 140 43 267 128 384 14 19 37 45 69 78 35 32 65 58 92 75 111 71 229 107 355 107 85 0 168-17 250-51v6c0 32-11 64-33 93-31 39-72 59-122 59h-85c-147 0-280-36-399-110-30-19-64-42-99-71-16-14-39-36-69-68-33-39-60-73-78-103-77-123-116-257-116-399zm1242 297c-2 0-5 0-10 1-23 8-35 23-35 45v255c0 54-10 101-33 142-28 48-68 81-118 99v1h1c69 0 126-19 171-59 45-45 68-103 68-176v-265c0-4 0-8-1-12-9-20-23-31-43-31zm843-1138c-27 0-55 6-84 17-23 9-39 17-52 27 25-6 47-8 66-8h4c44 0 85 14 121 41 11 7 28 24 51 50l127 168 404 534c157 212 243 325 255 341 5 8 17 22 38 41 33 29 67 44 101 44 33 0 62-14 89-41 20-24 29-45 29-65v-912c0-61-23-117-70-167-50-46-108-70-170-70h-5c-34 0-66 8-100 23-57 27-97 69-120 127-12 25-18 61-18 106v463l-174-231-296-392c-8-14-23-28-43-44-47-35-96-52-147-52h-6zm755 243c0-41 13-76 40-105 32-33 70-49 112-49 40 0 76 15 107 44 16 17 27 33 34 48 8 16 12 42 12 75v870c-7 22-20 33-37 33-5 0-9-1-14-2-4 0-14-6-26-19-21-23-32-37-32-40v-862c0-6-1-12-3-18-10-16-24-25-41-25-7 0-14 1-21 4-6 4-10 7-12 10-8 7-12 20-12 39v734h-1c-10-16-46-63-106-141v-596zm-836-68c-49 0-90 17-123 50-20 23-30 41-30 52l1 1c29-20 61-31 96-31 53 0 100 22 139 67 15 19 74 99 180 239 175 232 265 351 268 357 12 15 118 155 316 419 37 49 65 84 82 105 39 47 87 71 145 71 49 0 91-18 125-54 18-21 27-37 27-48l-1-1c-29 20-61 31-96 31-53 0-100-22-141-67l-179-237-299-396c-14-20-128-171-340-454-12-16-27-35-48-55-33-33-73-49-122-49zm-38 252c-30 0-57 11-82 33-25 25-37 50-37 72v911c0 59 23 115 68 166 50 48 107 72 170 72h6c42 0 84-12 124-35 47-29 81-72 101-131 9-22 13-53 13-94v-458l124 164 304 400c28 40 49 67 62 83 50 48 107 71 172 71 52 0 99-14 141-43-26 5-49 7-69 7-67 0-124-29-173-89l-128-169c-11-16-112-150-303-401l-337-449c-51-73-102-110-156-110zm-30 128c7-22 19-33 37-33 5 0 11 1 17 3 2 0 7 3 15 11 16 15 29 31 39 45v858c0 7 1 13 4 20 10 16 23 24 37 24h5c5 0 9-1 15-3 19-9 28-22 28-39v-740l91 120c11 14 16 22 16 22v594c0 35-11 66-31 94-34 41-75 61-121 61-14 0-31-2-47-8-40-14-70-41-89-78-11-19-16-45-16-80v-871zm2311-551c-93 0-160 3-198 9-35 4-66 11-93 22-32 12-59 24-80 37-31 17-56 34-77 51v1c39-19 200-28 479-28h368c36 0 70 13 100 40 33 31 48 66 48 105v7c0 38-15 73-45 105-32 28-66 42-102 42h-730c-33 0-53 0-62 1-39 0-74 7-106 22-23 10-45 27-67 47-46 50-70 107-70 171v1c0 24 4 48 11 73 14 39 29 73 45 102 13 22 31 48 55 78 11 14 30 33 57 59 26 22 49 40 71 53 90 54 184 81 279 81h212c9 0 17 2 24 4 25 12 37 30 37 54 0 13-3 23-10 33-12 17-28 25-45 25h-501c-54 0-100 13-140 39-10 7-25 19-44 37-43 49-64 104-64 164v5c0 36 9 72 26 108 10 19 25 40 48 64 48 43 103 65 163 65h515c58 0 117-10 179-31 40-14 76-32 110-53 17-11 32-23 43-34-43 19-201 29-472 29h-33c-125 0-242 0-349-1l-17-1c-25-4-50-17-75-39-32-32-48-68-48-105v-9c0-24 7-48 21-72 32-50 76-75 132-75h789c60 0 113-21 161-61 53-51 80-112 80-179v-2c0-30-7-63-21-97-42-104-108-189-200-254-27-17-52-32-76-43-72-34-151-51-239-51h-202c-9 0-18-3-27-8-19-14-28-29-28-48v-5c0-16 6-29 19-42 9-10 28-15 57-15h492c41 0 81-11 121-33 16-9 32-23 51-41 44-48 66-103 66-163v-6c0-46-14-91-43-132-17-25-35-45-56-59-40-31-92-46-151-46h-10c-219-1-344-1-378-1zm-380 196c-43 0-79 7-109 20-16 7-30 15-46 26-12 9-28 24-45 45-23 32-37 61-42 88v1c5-8 16-19 30-33 15-12 28-20 37-25 38-21 97-31 176-31h776c4 0 9-1 15-4 19-9 29-23 29-40v-5c0-1 0-4-1-8-7-23-24-34-47-34h-773zm15 346c0-9 1-19 2-30 3-21 5-31 6-31h112c-8 20-12 40-12 59 0 28 8 55 23 81 13 19 26 32 40 41 23 17 54 26 92 26h207c61 0 121 14 181 42 22 9 47 24 78 46 12 7 32 25 60 53 22 24 40 46 52 66 39 63 58 112 58 150 0 21-5 42-14 62-17 37-45 63-82 78 3-17 4-33 4-49 0-78-26-148-76-213-5-8-21-24-47-47-67-54-138-81-215-81h-207c-41 0-77-6-106-19-18-7-42-23-72-47-56-54-84-116-84-187zm-179 88c0-22 5-43 16-66 17-34 43-58 78-71-3 15-4 29-4 42v11c0 57 16 112 46 167 11 19 28 43 53 70 71 68 152 101 244 101h209c68 0 127 25 179 74 51 53 75 112 75 178 0 19-2 38-6 59h-112c8-20 11-37 11-53v-9c0-24-8-49-22-74-31-46-73-69-124-69h-206c-93 0-176-25-253-76-18-10-42-30-72-60-24-26-43-49-55-69-39-64-57-115-57-152v-3zm1155 672c-42 60-117 90-226 90h-789c-7 0-14 1-19 2-19 10-29 24-29 41v5c0 4 1 8 3 14 9 19 23 28 40 28h791c33 0 66-7 100-22 55-25 93-65 117-120 9-22 13-34 13-38h-1zM4645 1654c92 0 174 32 246 98 30 33 51 57 60 75 12 21 42 87 93 196 218 462 331 696 335 708h-2c-65-36-187-54-367-54h-378c-100 0-179-9-238-26-30-9-61-23-91-38-113-68-169-158-169-272 0-45 9-93 27-143 13-31 67-149 162-352 10-23 31-53 64-89 74-68 157-103 250-103h8zM3643 3289c42-90 96-201 157-333 22-47 34-71 39-72l20 27c7 12 28 35 63 68 61 52 129 88 204 111 70 24 168 36 292 36h619c133 0 247 12 340 36 78 20 142 55 197 100 160 132 325 486 316 695-20-50-39-96-63-144-108-216-304-481-511-529l270 611c42 5 78 13 107 26 34 12 67 32 98 60 66 68 99 156 99 264v4h-2l-9-26c-66-133-184-199-351-199H3746c-11 0-19-2-28-6-25-13-38-32-38-57v-5c0-4 0-9 1-13 2-7 5-13 8-18 36-85 180-428 338-759-7-3-10-7-12-8-14-7-39-29-72-66l-35-48c-96 202-382 718-382 913v2c0 29 6 58 17 87 45 93 119 138 219 138h1775c88 0 170 33 245 99 72 74 108 159 108 250v71c0 157-30 313-92 466-108 255-281 455-521 601-200 117-410 175-629 175h-15c-143 0-285-25-427-78-84-32-152-65-206-99-39-21-92-59-159-112-23-19-57-50-99-93-47-49-80-92-104-122-153-211-234-445-243-702-1-17-1-34-1-50l-10-464c0-33 2-64 4-93 22-302 123-463 255-744zm-117 1313c0 180 44 354 131 520 30 56 70 116 120 181 19 26 50 58 90 98 41 39 80 72 118 99 201 143 420 214 656 214 213 0 414-59 600-178 32-20 71-49 118-86 24-18 56-48 94-89 47-52 82-95 105-130 40-58 72-113 97-168 68-151 102-303 102-453v-75c0-41-12-80-37-119-30-41-70-71-122-89v260c0 212-61 403-182 572-19 28-52 65-98 112-45 45-82 78-112 99-172 123-360 184-564 184-191 0-366-51-528-157-33-20-77-55-134-108-42-43-72-75-89-98-42-52-75-102-99-149-26-46-48-106-71-179-26-82-38-179-38-295v-258c0-1-3-1-12-2-33-9-58-17-77-28-15-6-39-21-68-43v365zm326-710h155l297-637c-22-1-38-4-47-5-16 0-53-8-110-26l-295 668zm303 0h978c-55-118-196-414-299-633h-385l-294 633zm1126 0h157l-279-629c-40-3-87-4-138-4h-39c1 4 141 299 299 633zm-1465 698c0 191 59 363 175 515 16 22 44 53 86 92 34 32 66 57 95 77 145 98 299 148 461 148h14c153 0 300-45 439-133 34-22 68-47 103-77 45-42 71-71 82-85 129-158 194-335 194-530v-281h-159v252c0 89-10 163-29 223-16 47-32 88-50 119-12 26-33 60-64 103-16 20-43 46-79 82-131 112-279 167-443 167-134 0-257-37-370-112-23-13-58-41-104-83-34-37-59-68-76-94-76-118-116-241-116-369v-288h-159v274zm292 19c0 71 18 144 53 221 16 34 38 68 65 101 17 23 43 49 78 80 101 79 213 119 335 119 131 0 248-44 352-131 122-111 182-248 182-413v-270H4108v293zm1043-2045c-168-357-253-539-257-545-33-72-55-119-67-137-46-64-107-96-184-96-84 0-149 37-195 110-6 11-52 107-136 286-30 60-46 113-46 156 0 59 27 107 81 145 20-46 95-207 225-481 14-38 37-57 70-57h1c22 0 40 10 56 31l89 188 180 381h31c66 0 116 6 151 19h1zm-509-395-171 364c40 7 102 11 184 11h164l-176-375h-1zm-666 418c21 53 59 101 115 144 37 25 78 46 124 63 73 27 174 40 302 40h542c101 0 193 16 274 49 99 42 166 101 199 178v1c-25-12-44-22-60-28-98-45-244-67-434-67h-551c-112 0-204-14-272-41-86-35-149-90-190-165-11-23-22-50-33-83-11-48-17-79-17-91h1z" style="fill:#000;fill-rule:nonzero"/>
</svg>
